<?xml version="1.0" standalone="no"?>
<!DOCTYPE svg PUBLIC "-//W3C//DTD SVG 20010904//EN"
 "http://www.w3.org/TR/2001/REC-SVG-20010904/DTD/svg10.dtd">
<svg version="1.0" xmlns="http://www.w3.org/2000/svg"
 width="300.000000pt" height="144.000000pt" viewBox="0 0 300.000000 144.000000"
 preserveAspectRatio="xMidYMid meet">

<g transform="translate(0.000000,144.000000) scale(0.100000,-0.100000)"
fill="#000000" stroke="none">
<path d="M442 1171 c-201 -69 -254 -294 -101 -424 105 -91 302 -101 429 -24
55 33 80 60 67 73 -4 4 -17 -2 -30 -14 -30 -28 -106 -62 -141 -62 -148 -1
-256 154 -200 288 44 106 168 160 270 117 l35 -14 -49 -78 c-73 -118 -70 -110
-42 -92 14 9 62 37 107 63 l83 47 -17 25 c-24 37 -91 80 -153 98 -72 21 -191
20 -258 -3z"/>
<path d="M1020 1067 l-85 -32 86 -3 86 -3 12 -42 c7 -23 15 -50 18 -60 4 -17
3 -17 -24 -4 -77 40 -166 28 -220 -30 -28 -29 -33 -42 -33 -83 0 -43 5 -54 35
-84 40 -40 102 -61 154 -51 39 7 106 39 116 55 11 18 23 10 30 -20 l7 -30 74
0 c53 0 74 4 74 13 0 21 -87 333 -99 355 -16 30 -63 52 -108 51 -21 0 -76 -15
-123 -32z m100 -192 c53 -27 53 -103 0 -130 -39 -20 -43 -19 -79 11 -21 18
-31 35 -31 54 0 19 10 36 31 54 36 30 40 31 79 11z"/>
<path d="M1385 1066 l-70 -34 45 -3 45 -4 3 -172 2 -173 75 0 75 0 0 159 c0
132 3 162 16 175 20 20 27 20 47 -2 14 -16 17 -43 17 -175 l0 -157 75 0 75 0
0 188 c0 184 -1 189 -23 210 -31 29 -65 28 -142 -7 -36 -17 -65 -26 -65 -22 0
4 -9 17 -20 29 -29 31 -72 27 -155 -12z"/>
<path d="M1990 1089 c-124 -52 -174 -203 -104 -316 37 -60 114 -103 184 -103
70 0 147 43 184 104 60 96 32 224 -62 290 -36 25 -54 31 -110 33 -37 2 -78 -2
-92 -8z m77 -31 c14 -17 83 -280 83 -312 0 -19 -8 -30 -25 -38 -41 -19 -59 11
-99 160 -39 143 -42 172 -24 190 16 16 53 15 65 0z"/>
<path d="M2345 1067 l-70 -32 45 -5 45 -5 3 -172 2 -173 75 0 75 0 0 165 c0
159 1 165 22 176 18 10 24 8 40 -11 16 -19 18 -42 18 -176 l0 -154 75 0 75 0
0 184 c0 170 -1 185 -21 210 -28 35 -73 34 -148 -3 l-58 -30 -22 30 c-29 39
-66 38 -156 -4z"/>
<path d="M1140 443 c0 -13 29 -38 35 -31 3 3 -4 13 -15 23 -11 10 -20 13 -20
8z"/>
<path d="M2460 421 c0 -6 5 -13 10 -16 6 -3 10 1 10 9 0 9 -4 16 -10 16 -5 0
-10 -4 -10 -9z"/>
<path d="M355 395 c-31 -30 -33 -83 -6 -116 25 -31 101 -34 128 -5 17 18 17
18 -7 11 -14 -4 -37 -9 -52 -12 -54 -10 -92 72 -50 110 22 20 73 22 90 5 17
-17 28 -2 12 17 -20 25 -87 19 -115 -10z"/>
<path d="M510 341 c0 -44 5 -83 10 -86 6 -4 10 9 10 32 0 47 19 77 46 72 15
-3 20 -14 22 -49 5 -65 22 -75 22 -13 0 70 -26 97 -71 73 -17 -10 -19 -7 -19
20 0 16 -4 30 -10 30 -6 0 -10 -33 -10 -79z"/>
<path d="M860 335 c0 -96 17 -117 22 -26 l3 59 45 -53 c25 -30 48 -54 53 -54
4 -1 7 35 7 79 0 47 -4 80 -10 80 -6 0 -10 -27 -10 -61 l0 -61 -52 61 c-28 34
-53 61 -55 61 -1 0 -3 -38 -3 -85z"/>
<path d="M1020 405 c0 -8 5 -15 10 -15 6 0 10 7 10 15 0 8 -4 15 -10 15 -5 0
-10 -7 -10 -15z"/>
<path d="M1102 407 c-9 -10 -4 -13 23 -13 27 0 32 3 23 13 -6 7 -16 13 -23 13
-7 0 -17 -6 -23 -13z"/>
<path d="M1480 411 c0 -13 51 -133 61 -145 5 -5 20 17 35 50 41 92 45 104 33
104 -6 0 -22 -27 -37 -61 l-26 -60 -27 60 c-26 57 -39 74 -39 52z"/>
<path d="M1762 411 c2 -7 7 -12 11 -12 12 1 9 15 -3 20 -7 2 -11 -2 -8 -8z"/>
<path d="M1874 407 c-3 -8 -4 -45 -2 -83 l3 -69 34 -3 c18 -2 38 1 44 7 8 8 2
11 -21 11 l-32 0 0 69 c0 65 -13 100 -26 68z"/>
<path d="M2310 410 c0 -5 9 -10 20 -10 18 0 20 -7 20 -76 0 -47 4 -73 10 -69
6 3 10 37 10 76 0 55 3 69 15 69 8 0 15 5 15 10 0 6 -20 10 -45 10 -25 0 -45
-4 -45 -10z"/>
<path d="M661 354 c-27 -34 -26 -50 4 -79 29 -30 58 -32 85 -5 39 39 11 110
-44 110 -15 0 -33 -11 -45 -26z m77 -6 c15 -15 15 -51 0 -66 -19 -19 -45 -14
-62 10 -20 28 -20 33 0 52 18 19 45 21 62 4z"/>
<path d="M1020 315 c0 -42 4 -64 10 -60 6 3 10 30 10 60 0 30 -4 57 -10 60 -6
4 -10 -18 -10 -60z"/>
<path d="M1080 360 c-39 -39 -11 -110 43 -110 13 0 32 10 43 22 19 21 19 21
-1 14 -42 -17 -56 -18 -70 -6 -27 22 -16 30 40 30 60 0 61 1 44 33 -23 43 -66
50 -99 17z m78 -17 c2 -9 -8 -13 -32 -13 -34 0 -44 8 -29 24 11 11 56 2 61
-11z"/>
<path d="M1217 374 c-11 -11 -8 -112 3 -119 6 -4 10 11 10 38 0 47 19 74 45
63 10 -4 15 -19 15 -50 0 -25 5 -48 10 -51 6 -4 10 11 10 38 0 47 19 74 45 63
10 -4 15 -19 15 -50 0 -25 5 -48 10 -51 6 -4 10 14 10 48 0 66 -17 86 -56 69
-19 -9 -29 -9 -44 0 -16 10 -24 10 -39 1 -13 -8 -21 -9 -23 -2 -2 6 -7 7 -11
3z"/>
<path d="M1630 332 c0 -36 5 -54 20 -67 26 -23 68 -13 80 21 13 33 13 81 0 89
-6 4 -10 -11 -10 -37 0 -46 -13 -68 -41 -68 -20 0 -29 20 -29 65 0 19 -4 37
-10 40 -6 4 -10 -13 -10 -43z"/>
<path d="M1767 373 c-11 -10 -8 -111 3 -118 6 -4 10 18 10 59 0 66 -1 72 -13
59z"/>
<path d="M1990 360 c-11 -11 -20 -31 -20 -45 0 -28 32 -65 56 -65 8 0 24 5 35
10 13 8 19 7 19 0 0 -6 5 -8 10 -5 6 3 10 30 10 60 0 30 -4 57 -10 60 -5 3
-10 1 -10 -5 0 -7 -6 -8 -19 0 -29 15 -49 12 -71 -10z m80 -15 c19 -23 4 -64
-27 -71 -41 -11 -71 44 -41 74 17 17 53 15 68 -3z"/>
<path d="M2130 315 c0 -73 16 -81 22 -11 6 82 68 67 68 -17 0 -23 4 -36 10
-32 13 8 13 56 0 90 -12 31 -36 42 -60 27 -13 -8 -21 -7 -29 1 -8 8 -11 -7
-11 -58z"/>
<path d="M2421 354 c-27 -34 -26 -50 4 -79 29 -30 58 -32 85 -5 39 39 11 110
-44 110 -15 0 -33 -11 -45 -26z m77 -6 c7 -7 12 -21 12 -33 0 -46 -48 -60 -74
-23 -20 28 -20 33 0 52 18 19 45 21 62 4z"/>
<path d="M2570 360 c-11 -11 -20 -31 -20 -45 0 -28 32 -65 56 -65 8 0 24 5 35
10 13 8 19 7 19 0 0 -6 5 -8 10 -5 6 3 10 30 10 60 0 30 -4 57 -10 60 -5 3
-10 1 -10 -5 0 -7 -6 -8 -19 0 -29 15 -49 12 -71 -10z m80 -15 c15 -19 6 -61
-16 -69 -27 -10 -53 3 -60 30 -8 30 11 54 41 54 12 0 28 -7 35 -15z"/>
</g>
</svg>
